<?xml version="1.0" encoding="utf-8"?>
<!-- Generator: Adobe Illustrator 16.0.0, SVG Export Plug-In . SVG Version: 6.00 Build 0)  -->
<!DOCTYPE svg PUBLIC "-//W3C//DTD SVG 1.1//EN" "http://www.w3.org/Graphics/SVG/1.1/DTD/svg11.dtd">
<svg version="1.1" xmlns="http://www.w3.org/2000/svg" xmlns:xlink="http://www.w3.org/1999/xlink" x="0px" y="0px" width="750px"
	 height="500px" viewBox="0 0 750 500" style="enable-background:new 0 0 750 500;" xml:space="preserve">
<g id="Plants">
	<g id="freepik--Plants--inject-32">
		<path style="fill:#263238;" d="M439.36,406.29c-0.07,0,1.2-4.06,1.3-4.3c1.26-2.85,5.41-7.63,8.85-7.26
			c2.26,0.3,3.85,2.39,3.55,4.65c-0.02,0.15-0.05,0.29-0.08,0.43c-0.5,2.41-2.91,4.27-5.02,5.27
			C445.5,406.24,439.36,406.29,439.36,406.29z"/>
		<g>
			<path style="fill:#263238;" d="M701,359.87c-2.5-1.09-6.58-5.68-6.59-5.68c0-0.01,3.84-1.75,4.09-1.84
				c2.98-0.93,9.28-0.97,11.29,1.88c1.26,1.9,0.75,4.46-1.15,5.73c-0.13,0.08-0.26,0.16-0.39,0.23
				C706.11,361.39,703.14,360.8,701,359.87z"/>
			<path style="fill:#263238;" d="M636.5,385.44c-1.55,1.12-2.96,2.18-4.24,3.17l-2.37-0.65c1.61-1.21,3.5-2.55,5.57-4.01
				c1.21-0.84,2.52-1.72,3.88-2.6c-0.62-1.41-1.16-2.86-1.62-4.33c-2.31,0.12-6.59-1.25-7.14-1.43c-0.54,1.35-1.06,2.67-1.53,3.92
				c-1.07,2.83-1.93,5.36-2.64,7.5l-1.96-0.53c0.76-2.17,1.71-4.75,2.86-7.63c0.55-1.37,1.16-2.83,1.8-4.31
				c-0.5-0.32-4.56-2.92-5.8-4.8c-1.12-1.71-2.07-4.21-1.34-6.25c0.62-1.91,2.67-2.96,4.58-2.35c0.12,0.04,0.24,0.08,0.36,0.14
				c2.77,1.33,3.66,6.79,3.29,9.51c-0.04,0.15-0.45,1.87-0.74,2.95c0.27-0.63,0.52-1.2,0.79-1.82c0.55-1.25,1.13-2.45,1.73-3.77
				c0.32-0.62,0.65-1.24,0.98-1.88c0.31-0.62,0.73-1.27,1.09-1.91c0.87-1.47,1.83-2.91,2.82-4.35c-1.08-0.48-4.88-2.25-6.26-3.78
				c-1.38-1.53-2.68-3.85-2.27-5.97c0.3-1.99,2.16-3.35,4.14-3.05c0.14,0.02,0.27,0.05,0.41,0.09c2.94,0.89,4.62,6.17,4.7,8.9
				c0,0.17-0.19,2.14-0.31,3.22c0.61-0.86,1.21-1.72,1.84-2.56c1.85-2.45,3.79-4.88,5.72-7.3c0.59-0.74,1.17-1.49,1.75-2.23
				c-0.38-0.17-4.95-2.17-6.49-3.88c-1.36-1.53-2.68-3.85-2.27-5.97c0.3-1.99,2.16-3.35,4.14-3.05c0.14,0.02,0.27,0.05,0.41,0.09
				c2.94,0.89,4.62,6.17,4.69,8.89c0.01,0.21-0.27,3.05-0.37,3.76c1.29-1.64,2.55-3.29,3.73-4.96c1.61-2.26,3.07-4.61,4.38-7.06
				c-0.19-0.05-4.96-2.14-6.54-3.89c-1.36-1.52-2.68-3.85-2.27-5.97c0.31-1.99,2.17-3.35,4.16-3.04c0.13,0.02,0.26,0.05,0.39,0.08
				c2.94,0.89,4.62,6.17,4.69,8.9c0.01,0.18-0.2,2.34-0.32,3.37l0.17,0.05c1.24-2.49,2.26-5.09,3.04-7.77
				c0.45-1.47,0.79-2.9,1.1-4.29c-0.93-0.3-5.15-1.68-6.75-3.11s-3.09-3.53-2.91-5.7c0.1-2.01,1.8-3.55,3.81-3.45
				c0.13,0.01,0.26,0.02,0.39,0.04c3.01,0.56,5.29,5.61,5.64,8.33c0.02,0.15,0.05,1.67,0.05,2.78c0.13-0.63,0.27-1.28,0.38-1.89
				c0.42-2.28,0.67-4.4,0.88-6.27c0.11-1.07,0.19-2.05,0.25-2.95c-0.76-0.76-3.79-3.88-4.53-5.84s-1.12-4.55,0.04-6.39
				c1.01-1.74,3.24-2.32,4.97-1.32c0.11,0.07,0.22,0.14,0.33,0.21c2.42,1.89,2.11,7.42,1.17,9.99c-0.06,0.23-1.76,3.56-1.8,3.52
				l-0.05-0.01c-0.04,0.87-0.09,1.8-0.18,2.83c-0.17,1.89-0.39,4.01-0.74,6.31c-0.38,2.48-0.9,4.94-1.57,7.37
				c-0.72,2.72-1.68,5.37-2.87,7.92c-0.01,0.03-0.02,0.07-0.03,0.1c0.61-0.66,2.4-2.43,2.55-2.55c2.14-1.71,7.3-3.75,9.85-2.05
				c1.64,1.16,2.03,3.43,0.87,5.07c-0.08,0.11-0.16,0.21-0.24,0.3c-1.38,1.68-4.01,2.13-6.05,2.05c-2.31-0.09-6.78-2.35-7.14-2.53
				c-1.28,2.56-2.74,5.03-4.35,7.39c-0.93,1.38-1.92,2.75-2.92,4.11c0.55-0.55,1.04-1.04,1.12-1.1c2.14-1.71,7.29-3.75,9.85-2.05
				c1.64,1.15,2.04,3.42,0.88,5.06c-0.08,0.11-0.16,0.21-0.25,0.32c-1.38,1.68-4,2.14-6.05,2.05c-2.04-0.08-5.93-1.93-6.94-2.43
				c-0.39,0.52-0.77,1.04-1.17,1.54c-1.88,2.47-3.77,4.93-5.53,7.4c-0.62,0.87-1.19,1.78-1.8,2.63c0.49-0.49,0.9-0.9,0.96-0.96
				c2.14-1.71,7.29-3.75,9.85-2.04c1.64,1.15,2.04,3.42,0.88,5.06c-0.08,0.11-0.16,0.22-0.25,0.32c-1.38,1.67-4,2.13-6.05,2.05
				c-2.04-0.08-5.55-1.76-6.76-2.35c-0.57,0.92-1.15,1.84-1.67,2.75c-0.33,0.61-0.7,1.21-1.01,1.87l-0.94,1.91
				c-0.55,1.25-1.12,2.5-1.63,3.71c-0.36,0.85-0.69,1.65-1.02,2.47c0.61-0.87,1.85-2.56,1.97-2.69c1.7-1.71,3.82-2.95,6.14-3.61
				c0.18-0.2,0.38-0.38,0.6-0.54c1.56-1.25,3.85-1,5.1,0.56c0.08,0.1,0.16,0.21,0.23,0.32c1.58,2.63-0.7,7.68-2.5,9.74
				c-0.1,0.13-1.4,1.31-2.24,2.05c0.56-0.36,1.09-0.71,1.69-1.07c1.14-0.73,2.29-1.41,3.53-2.16l1.86-1.03
				c0.61-0.36,1.3-0.65,1.95-0.99c1.54-0.74,3.14-1.42,4.77-2.07c-0.63-1-2.83-4.57-3.1-6.59c-0.27-2.02-0.12-4.69,1.41-6.24
				c1.36-1.47,3.66-1.57,5.13-0.21c0.1,0.09,0.19,0.18,0.27,0.28c1.96,2.36,0.48,7.69-0.99,10.01c-0.09,0.14-1.33,1.69-2.03,2.52
				c0.97-0.39,1.95-0.77,2.95-1.13c2.89-1.02,5.85-1.97,8.8-2.92l2.7-0.89c-0.23-0.35-2.96-4.54-3.27-6.82
				c-0.3-2.02-0.12-4.69,1.4-6.23c1.37-1.47,3.67-1.56,5.14-0.2c0.09,0.09,0.18,0.18,0.26,0.27c1.96,2.37,0.48,7.7-1,10.02
				c-0.11,0.17-1.9,2.39-2.38,2.93c1.98-0.66,3.95-1.34,5.85-2.08c2.59-1,5.11-2.16,7.54-3.47c-0.11-0.16-2.96-4.53-3.29-6.86
				c-0.3-2.03-0.12-4.69,1.4-6.24c1.37-1.47,3.67-1.56,5.14-0.19c0.09,0.09,0.18,0.18,0.26,0.27c1.97,2.37,0.48,7.7-0.99,10.02
				c-0.1,0.15-1.46,1.84-2.12,2.63l0.11,0.13c2.42-1.39,4.7-3,6.83-4.8c1.18-0.97,2.26-1.97,3.29-2.97
				c-0.61-0.76-3.37-4.25-3.91-6.32c-0.54-2.07-0.64-4.64,0.71-6.35c1.19-1.62,3.47-1.97,5.08-0.78c0.1,0.08,0.2,0.16,0.3,0.24
				c2.22,2.13,1.32,7.6,0.11,10.06c-0.04,0.14-0.89,1.42-1.49,2.35c0.45-0.46,0.95-0.92,1.36-1.37c1.61-1.66,3-3.3,4.19-4.75
				c0.68-0.83,1.28-1.6,1.82-2.3c-0.21-1.06-1.02-5.33-0.55-7.38c0.46-2.05,1.58-4.42,3.56-5.33c1.81-0.89,3.99-0.14,4.88,1.66
				c0.05,0.11,0.1,0.23,0.15,0.34c0.98,2.92-2.33,7.35-4.56,8.98c-0.19,0.14-3.42,2-3.43,1.94l-0.02-0.06
				c-0.52,0.71-1.1,1.45-1.71,2.26c-1.18,1.49-2.52,3.15-4.13,4.85c-1.68,1.86-3.48,3.63-5.37,5.28c-2.11,1.86-4.38,3.54-6.78,5
				c-0.03,0.01-0.06,0.03-0.08,0.05c0.87-0.21,3.34-0.71,3.54-0.73c2.73-0.24,8.16,0.9,9.35,3.73c0.73,1.87-0.19,3.97-2.06,4.7
				c-0.12,0.05-0.25,0.09-0.38,0.13c-2.07,0.64-4.52-0.42-6.18-1.62c-1.87-1.35-4.35-5.7-4.55-6.05c-2.48,1.42-5.06,2.68-7.71,3.76
				c-1.57,0.63-3.14,1.24-4.7,1.81c0.74-0.16,1.45-0.3,1.54-0.28c2.73-0.24,8.16,0.91,9.34,3.73c0.73,1.87-0.19,3.97-2.06,4.7
				c-0.13,0.05-0.25,0.09-0.38,0.13c-2.07,0.64-4.51-0.43-6.18-1.63c-1.66-1.2-3.88-4.88-4.44-5.86l-1.83,0.66
				c-2.93,1.02-5.86,2.03-8.7,3.1c-1,0.38-1.97,0.79-2.95,1.2l1.34-0.26c2.73-0.24,8.16,0.91,9.34,3.73
				c0.73,1.87-0.19,3.97-2.06,4.7c-0.12,0.05-0.25,0.09-0.38,0.12c-2.07,0.63-4.52-0.43-6.18-1.63c-1.66-1.2-3.67-4.51-4.34-5.69
				c-0.98,0.43-1.98,0.9-2.91,1.37c-0.63,0.34-1.26,0.62-1.88,1l-1.83,1.07c-1.14,0.73-2.32,1.47-3.41,2.2
				c-0.76,0.49-1.48,1-2.21,1.5c1.01-0.42,2.95-1.11,3.12-1.16c2.67-0.67,8.19-0.35,9.8,2.27c1.01,1.74,0.41,3.96-1.32,4.97
				c-0.11,0.07-0.23,0.13-0.35,0.18c-1.95,0.94-4.54,0.26-6.36-0.67c-2-1.02-5-4.77-5.39-5.25
				C638.74,383.84,637.58,384.65,636.5,385.44z"/>
		</g>
		<g>
			<path style="fill:#263238;" d="M53.09,365.21c2.27-0.88,6.05-4.81,6.05-4.81s-3.34-1.7-3.57-1.79c-2.61-0.93-8.2-1.19-10.11,1.28
				c-1.19,1.64-0.81,3.94,0.83,5.12c0.11,0.08,0.22,0.15,0.33,0.21C48.5,366.38,51.17,365.96,53.09,365.21z"/>
			<path style="fill:#263238;" d="M91.53,332.62c0.05-0.01-1.85-3.26-2-3.46c-1.66-2.21-6.18-5.5-9.12-4.5
				c-1.9,0.71-2.86,2.83-2.14,4.73c0.05,0.13,0.1,0.25,0.16,0.37c0.92,1.99,3.38,3.1,5.4,3.54
				C86.2,333.82,91.52,332.62,91.53,332.62z"/>
			<path style="fill:#263238;" d="M109.47,390.14c1.33,1.04,2.55,2.04,3.66,2.96l2.13-0.5c-1.39-1.13-3.01-2.4-4.8-3.74
				c-1.05-0.79-2.18-1.61-3.34-2.45c0.61-1.23,1.15-2.5,1.61-3.79c2.05,0.22,5.89-0.87,6.39-1.02c0.44,1.22,0.84,2.41,1.22,3.53
				c0.85,2.54,1.54,4.82,2.09,6.75l1.73-0.4c-0.6-1.94-1.35-4.28-2.29-6.87c-0.44-1.24-0.93-2.56-1.45-3.9
				c0.45-0.26,4.15-2.43,5.3-4.06c1.04-1.48,1.99-3.67,1.41-5.5c-0.48-1.72-2.25-2.72-3.97-2.24c-0.11,0.03-0.23,0.07-0.33,0.11
				c-2.53,1.08-3.49,5.9-3.26,8.33c0.03,0.14,0.33,1.68,0.56,2.65c-0.22-0.55-0.42-1.08-0.64-1.64c-0.45-1.11-0.92-2.21-1.43-3.39
				c-0.27-0.56-0.53-1.13-0.8-1.7c-0.27-0.57-0.6-1.15-0.9-1.73c-0.72-1.34-1.52-2.65-2.36-3.96c0.98-0.39,4.43-1.83,5.68-3.14
				c1.25-1.31,2.52-3.32,2.25-5.23c-0.22-1.77-1.83-3.03-3.6-2.82c-0.11,0.01-0.23,0.03-0.34,0.06c-2.62,0.68-4.32,5.3-4.45,7.73
				c-0.01,0.15,0.09,1.91,0.16,2.87c-0.51-0.78-1.01-1.56-1.55-2.34c-1.55-2.24-3.2-4.46-4.83-6.68c-0.5-0.67-1.01-1.36-1.49-2.04
				c0.35-0.14,4.46-1.73,5.9-3.22c1.27-1.31,2.52-3.33,2.25-5.24c-0.21-1.77-1.82-3.04-3.59-2.82c-0.11,0.01-0.23,0.03-0.34,0.06
				c-2.62,0.68-4.32,5.3-4.45,7.74c-0.01,0.18,0.13,2.71,0.2,3.35c-1.09-1.5-2.15-3-3.14-4.54c-1.35-2.06-2.56-4.2-3.63-6.42
				c0.17-0.04,4.46-1.73,5.93-3.24c1.27-1.31,2.52-3.33,2.25-5.23c-0.21-1.77-1.82-3.04-3.59-2.83c-0.11,0.01-0.23,0.03-0.34,0.06
				c-2.62,0.68-4.32,5.3-4.45,7.74c-0.01,0.16,0.09,2.06,0.17,3l-0.15,0.04c-1.09-2.24-1.97-4.57-2.64-6.96
				c-0.35-1.31-0.6-2.59-0.83-3.85c0.84-0.2,4.64-1.32,6.1-2.53c1.46-1.21,2.87-3.03,2.79-4.95c-0.02-1.79-1.49-3.22-3.27-3.2
				c-0.11,0-0.22,0.01-0.33,0.02c-2.68,0.39-4.9,4.8-5.27,7.19c-0.02,0.13-0.1,1.49-0.12,2.47c-0.09-0.57-0.2-1.15-0.28-1.7
				c-0.29-2.01-0.45-3.93-0.56-5.6c-0.06-0.95-0.09-1.81-0.11-2.62c0.7-0.66,3.5-3.32,4.22-5.03s1.15-4.01,0.19-5.67
				c-0.84-1.58-2.79-2.17-4.37-1.33c-0.1,0.05-0.2,0.11-0.29,0.17c-2.22,1.59-2.14,6.51-1.42,8.84c0.05,0.2,1.44,3.22,1.43,3.19
				l0.05-0.01c0.01,0.78,0.02,1.61,0.06,2.52c0.08,1.68,0.18,3.57,0.44,5.63c0.25,2.22,0.63,4.42,1.13,6.59
				c0.55,2.43,1.32,4.81,2.29,7.1l0.02,0.08c-0.51-0.58-2.04-2.24-2.17-2.36c-1.85-1.59-6.38-3.57-8.67-2.15
				c-1.49,0.97-1.92,2.96-0.95,4.46c0.06,0.1,0.13,0.2,0.21,0.29c1.16,1.53,3.48,2.04,5.33,2.02c2.08-0.01,6.1-1.85,6.42-2
				c1.06,2.31,2.28,4.55,3.64,6.71c0.78,1.26,1.6,2.51,2.45,3.75c-0.47-0.51-0.92-0.95-0.93-1.02c-1.85-1.59-6.35-3.58-8.67-2.15
				c-1.49,0.97-1.92,2.96-0.95,4.46c0.06,0.1,0.13,0.19,0.21,0.29c1.16,1.54,3.48,2.04,5.33,2.03c1.85-0.01,5.33-1.51,6.24-1.92
				c0.33,0.47,0.65,0.95,0.98,1.42c1.59,2.26,3.18,4.5,4.66,6.75c0.53,0.79,1.02,1.6,1.52,2.42c-0.42-0.45-0.77-0.83-0.83-0.88
				c-1.85-1.59-6.38-3.57-8.67-2.15c-1.49,0.97-1.92,2.96-0.95,4.46c0.06,0.1,0.13,0.2,0.21,0.29c1.16,1.54,3.48,2.04,5.33,2.03
				s4.98-1.36,6.08-1.85c0.48,0.83,0.96,1.66,1.38,2.5c0.28,0.57,0.59,1.11,0.84,1.69c0.25,0.59,0.51,1.16,0.77,1.72
				c0.44,1.11,0.91,2.26,1.32,3.36c0.29,0.76,0.55,1.49,0.82,2.22c-0.52-0.8-1.55-2.33-1.66-2.45c-1.48-1.6-3.35-2.79-5.42-3.45
				c-0.15-0.18-0.32-0.35-0.5-0.5c-1.35-1.17-3.39-1.03-4.56,0.32c-0.07,0.09-0.15,0.18-0.21,0.27c-1.5,2.28,0.35,6.86,1.88,8.75
				c0.09,0.11,1.2,1.21,1.93,1.9c-0.49-0.34-0.95-0.67-1.46-1.05c-0.98-0.68-1.98-1.34-3.07-2.06l-1.61-0.98
				c-0.53-0.34-1.13-0.63-1.71-0.95c-1.34-0.71-2.73-1.37-4.15-2c0.6-0.83,2.67-3.96,3.01-5.76c0.34-1.8,0.27-4.16-1.02-5.58
				c-1.16-1.36-3.19-1.53-4.55-0.37c-0.09,0.08-0.17,0.15-0.25,0.24c-1.83,2.03-0.69,6.82,0.52,8.9c0.08,0.13,1.13,1.54,1.72,2.31
				c-0.86-0.38-1.71-0.76-2.59-1.1c-2.53-1.01-5.12-1.96-7.71-2.91l-2.35-0.8c0.21-0.31,2.76-3.94,3.14-5.95
				c0.34-1.78,0.27-4.16-1.02-5.58c-1.15-1.36-3.19-1.53-4.55-0.37c-0.09,0.07-0.17,0.15-0.25,0.24c-1.82,2.03-0.69,6.82,0.53,8.9
				c0.09,0.16,1.6,2.19,2.01,2.68c-1.73-0.65-3.45-1.32-5.13-2.05c-2.26-0.96-4.45-2.08-6.57-3.33c0.1-0.14,2.78-3.91,3.16-5.97
				c0.34-1.79,0.27-4.16-1.02-5.58c-1.16-1.36-3.19-1.53-4.55-0.37c-0.09,0.08-0.17,0.15-0.25,0.24c-1.82,2.03-0.69,6.82,0.53,8.9
				c0.08,0.13,1.23,1.69,1.79,2.41l-0.11,0.12c-2.1-1.32-4.07-2.83-5.9-4.5c-1.01-0.9-1.94-1.83-2.82-2.75
				c0.54-0.65,3.14-3.66,3.7-5.48s0.72-4.1-0.41-5.66c-1-1.48-3-1.87-4.48-0.87c-0.1,0.06-0.19,0.13-0.28,0.21
				c-2.03,1.82-1.44,6.71-0.45,8.93c0.03,0.13,0.74,1.29,1.24,2.13c-0.39-0.42-0.8-0.85-1.17-1.26c-1.37-1.54-2.54-3.03-3.55-4.37
				c-0.58-0.76-1.08-1.46-1.55-2.12c0.23-0.93,1.09-4.7,0.75-6.53c-0.33-1.83-1.26-3.98-2.98-4.86c-1.57-0.85-3.53-0.27-4.38,1.3
				c-0.05,0.1-0.1,0.2-0.15,0.31c-0.97,2.56,1.81,6.61,3.72,8.16c0.17,0.13,2.97,1.89,2.99,1.85c0-0.02-0.01-0.04-0.01-0.05
				c0.43,0.65,0.91,1.33,1.44,2.07c1.01,1.36,2.13,2.89,3.47,4.46c1.44,1.71,2.97,3.34,4.6,4.87c1.81,1.73,3.76,3.29,5.84,4.67
				l0.08,0.04c-0.75-0.22-2.95-0.75-3.11-0.77c-2.42-0.31-7.26,0.52-8.42,2.99c-0.72,1.63,0.01,3.53,1.63,4.26
				c0.12,0.05,0.24,0.1,0.36,0.14c1.82,0.64,4.02-0.24,5.54-1.22c1.71-1.14,4.06-4.91,4.25-5.21c2.16,1.35,4.4,2.56,6.72,3.61
				c1.35,0.63,2.72,1.21,4.1,1.78l-1.36-0.32c-2.42-0.31-7.27,0.52-8.42,2.99c-0.72,1.63,0.02,3.54,1.65,4.26
				c0.11,0.05,0.23,0.09,0.35,0.13c1.82,0.63,4.02-0.24,5.54-1.23c1.52-0.99,3.61-4.2,4.15-5.05l1.6,0.64
				c2.57,1.01,5.13,2.01,7.65,3.08c0.88,0.37,1.72,0.77,2.58,1.16c-0.6-0.15-1.1-0.26-1.18-0.27c-2.42-0.31-7.26,0.51-8.43,2.98
				c-0.72,1.63,0.02,3.54,1.65,4.26c0.12,0.05,0.23,0.09,0.35,0.13c1.81,0.63,4.02-0.24,5.54-1.23c1.52-0.99,3.41-3.89,4.05-4.89
				c0.86,0.43,1.72,0.86,2.53,1.31c0.55,0.32,1.1,0.6,1.61,0.96l1.62,1.01c0.98,0.68,2.01,1.37,2.96,2.09
				c0.67,0.48,1.29,0.94,1.91,1.4c-0.86-0.38-2.58-1.08-2.73-1.13c-2.34-0.67-7.26-0.59-8.78,1.68c-0.95,1.51-0.5,3.5,1.01,4.46
				c0.1,0.06,0.2,0.12,0.3,0.17c1.7,0.9,4.02,0.39,5.67-0.37c1.82-0.84,4.61-4.07,4.97-4.48
				C107.57,388.64,108.55,389.41,109.47,390.14z"/>
		</g>
	</g>
</g>
<g id="Background_Simple">
	<g>
		<path style="fill:#7529D6;" d="M555.91,49.14c-59.07-34.96-137.66-22.66-193.02,19.31c-39.6,30.02-76.34,65.01-121.53,85.68
			c-34.72,15.88-74.4,23.51-100.3,53.66c-40.56,47.2-35.15,113.74-6.98,165.71c32.68,60.3,91.99,87.4,158.11,96.03
			c65.87,8.59,135.25-1.28,193.05-35.19c77.01-45.18,118.29-131.54,132.96-216.99C629.26,152.92,615.73,84.55,555.91,49.14z"/>
		<path style="opacity:0.7;fill:#FFFFFF;" d="M555.91,49.14c-59.07-34.96-137.66-22.66-193.02,19.31
			c-39.6,30.02-76.34,65.01-121.53,85.68c-34.72,15.88-74.4,23.51-100.3,53.66c-40.56,47.2-35.15,113.74-6.98,165.71
			c32.68,60.3,91.99,87.4,158.11,96.03c65.87,8.59,135.25-1.28,193.05-35.19c77.01-45.18,118.29-131.54,132.96-216.99
			C629.26,152.92,615.73,84.55,555.91,49.14z"/>
	</g>
</g>
<g id="Interface">
	<g id="Capa_6">
		<g>
			<path style="fill:#FFFFFF;stroke:#263238;stroke-linecap:round;stroke-linejoin:round;stroke-miterlimit:10;" d="M632.15,96.46
				v327.66c0,8.46-6.86,15.32-15.32,15.32H128.67c-8.46,0-15.32-6.86-15.32-15.32V96.46c0-0.22,0.01-0.44,0.02-0.65
				c0.32-7.9,6.63-14.26,14.52-14.66c0.26-0.01,0.52-0.02,0.79-0.02h488.16c0.26,0,0.53,0.01,0.79,0.02
				c7.88,0.4,14.19,6.76,14.52,14.66C632.14,96.02,632.15,96.24,632.15,96.46z"/>
			<path style="fill:#7529D6;stroke:#263238;stroke-miterlimit:10;" d="M632.13,95.81H113.36c0.32-7.9,6.63-14.26,14.52-14.66
				c0.26-0.01,0.52-0.02,0.79-0.02h488.16c0.26,0,0.53,0.01,0.79,0.02C625.5,81.56,631.81,87.91,632.13,95.81z"/>
			<circle style="fill:#263238;" cx="137.5" cy="88.47" r="2.4"/>
			<circle style="fill:#263238;" cx="146.96" cy="88.47" r="2.4"/>
			<circle style="fill:#263238;" cx="156.42" cy="88.47" r="2.4"/>
		</g>
	</g>
	<g>
		
			<circle style="fill:#FFFFFF;stroke:#263238;stroke-linecap:round;stroke-linejoin:round;stroke-miterlimit:10;" cx="139.52" cy="242.73" r="12.31"/>
		<polyline style="fill:#FFFFFF;stroke:#263238;stroke-linecap:round;stroke-linejoin:round;stroke-miterlimit:10;" points="
			141.83,235.46 135.74,242.73 141.83,248.63 		"/>
	</g>
</g>
<g id="Progress_bar">
	<g>
		<g>
			<g>
				<g>
					<path style="fill:#263238;" d="M389.56,402.19c0,0-0.59,2.48,1.19,4.88c1.78,2.4,3.42,2.69,3.42,2.69v10.5
						c0,0-9.35,1.83-11.58,0.49c-1.51-0.91-1.45-5.66-1.25-8.61c0.09-1.37,1.17-2.46,2.53-2.57l3.03-0.25
						C386.89,409.32,386.14,401,389.56,402.19z"/>
					<rect x="395.55" y="409.32" style="fill:#263238;" width="3.42" height="11.13"/>
				</g>
				<g>
					<path style="fill:#263238;" d="M408.59,416.29v0.88c0,1.44-0.86,2.34-2.3,2.34c-1.44,0-2.3-0.9-2.3-2.34v-0.29l1.39-0.14v0.31
						c0,0.76,0.33,1.09,0.88,1.09c0.56,0,0.89-0.33,0.89-0.95v-1c0-0.76-0.33-1.09-1.09-1.09h-0.57v-1.36h0.48
						c0.76,0,1.09-0.33,1.09-1.09v-0.74c0-0.56-0.3-0.86-0.82-0.86s-0.82,0.3-0.82,0.99v0.22h-1.39v-0.33
						c0-1.38,0.83-2.25,2.23-2.25s2.23,0.87,2.23,2.25v0.63c0,0.86-0.35,1.48-1.02,1.82C408.21,414.75,408.59,415.39,408.59,416.29z
						"/>
					<path style="fill:#263238;" d="M409.75,417.22v-5.2c0-1.38,0.93-2.3,2.32-2.3s2.32,0.93,2.32,2.3v5.2c0,1.38-0.93,2.3-2.32,2.3
						S409.75,418.59,409.75,417.22z M412.93,417.22v-5.2c0-0.6-0.34-0.94-0.87-0.94s-0.87,0.34-0.87,0.94v5.2
						c0,0.6,0.34,0.94,0.87,0.94S412.93,417.82,412.93,417.22z"/>
					<path style="fill:#263238;" d="M420.53,415.46l-0.54,1.05v2.88h-1.44v-9.54h1.44v3.87l1.91-3.87h1.55l-2.03,4.05l2.18,5.49
						h-1.55L420.53,415.46z"/>
				</g>
			</g>
			<g>
				<path style="fill:#263238;" d="M446.2,426.51c0,0-0.59-2.48,1.19-4.88s3.41-2.69,3.41-2.69v-10.5c0,0-9.35-1.83-11.58-0.49
					c-1.51,0.91-1.45,5.66-1.25,8.61c0.09,1.37,1.17,2.46,2.53,2.57l3.02,0.25C443.52,419.38,442.78,427.7,446.2,426.51z"/>
				<rect x="452.68" y="408.25" style="fill:#263238;" width="3.41" height="11.13"/>
				<g>
					<path style="fill:#263238;" d="M464.73,411.9h-1.63v-1.01c1.12-0.08,1.79-0.53,2.07-1.05h1.01v9.54h-1.44V411.9z"/>
					<path style="fill:#263238;" d="M469.06,418.01h2.86v1.36h-4.58v-1.25l2.11-3.36c0.79-1.25,1.02-1.91,1.02-2.64
						c0-0.67-0.31-1.04-0.87-1.04s-0.87,0.37-0.87,1.04v0.56h-1.39v-0.45c0-1.55,0.84-2.51,2.27-2.51c1.43,0,2.3,0.89,2.3,2.36
						c0,1.04-0.31,1.88-1.28,3.42L469.06,418.01z"/>
					<path style="fill:#263238;" d="M472.97,417.2v-0.29l1.39-0.14v0.31c0,0.76,0.33,1.06,0.86,1.06s0.86-0.3,0.86-0.93v-2.21
						c0-0.56-0.3-0.83-0.76-0.83c-0.52,0-0.9,0.35-0.9,0.94v0.17h-1.39v-5.45h4.13v1.36h-2.74v2.37c0.2-0.37,0.72-0.69,1.38-0.69
						c1.08,0,1.73,0.76,1.73,1.92v2.4c0,1.44-0.86,2.32-2.28,2.32C473.83,419.51,472.97,418.64,472.97,417.2z"/>
				</g>
			</g>
		</g>
		<g>
			<polygon style="fill:#263238;" points="268.78,420.14 268.78,412.8 272.52,412.8 278.22,407.25 278.22,424.64 273.5,419.84 			
				"/>
			<path style="fill:#263238;" d="M283.77,415.95c0,2.32-1.43,4.32-3.46,5.14v-10.27C282.35,411.63,283.77,413.63,283.77,415.95z"/>
			<path style="fill:none;stroke:#263238;stroke-miterlimit:10;" d="M279.74,407.24c4.15,0.72,7.31,4.35,7.31,8.71
				c0,4.17-2.89,7.66-6.77,8.59"/>
		</g>
		<g>
			<g>
				<g>
					<path style="fill:#263238;" d="M206.68,424.15L206.68,424.15c-0.9,0-1.63-0.73-1.63-1.63v-12.09c0-0.9,0.73-1.63,1.63-1.63l0,0
						c0.9,0,1.63,0.73,1.63,1.63v12.09C208.31,423.42,207.58,424.15,206.68,424.15z"/>
					<path style="fill:#263238;" d="M213.19,424.15L213.19,424.15c-0.9,0-1.63-0.73-1.63-1.63v-12.09c0-0.9,0.73-1.63,1.63-1.63l0,0
						c0.9,0,1.63,0.73,1.63,1.63v12.09C214.82,423.42,214.09,424.15,213.19,424.15z"/>
				</g>
				<g>
					<path style="fill:#263238;" d="M174.23,408.95L174.23,408.95c0.91,0,1.64,0.73,1.64,1.64v12.19c0,0.91-0.73,1.64-1.64,1.64l0,0
						c-0.91,0-1.64-0.73-1.64-1.64v-12.19C172.59,409.69,173.32,408.95,174.23,408.95z"/>
					<path style="fill:#263238;" d="M186.4,410.26v12.78c0,0.56-0.65,0.87-1.08,0.53l-8.44-6.67c-0.35-0.28-0.34-0.81,0.02-1.07
						l8.44-6.1C185.78,409.4,186.4,409.72,186.4,410.26z"/>
				</g>
				<g>
					<path style="fill:#263238;" d="M245.46,423.78L245.46,423.78c-0.91-0.01-1.63-0.75-1.62-1.66l0.15-12.19
						c0.01-0.91,0.75-1.63,1.66-1.62l0,0c0.91,0.01,1.63,0.75,1.62,1.66l-0.15,12.19C247.11,423.06,246.37,423.79,245.46,423.78z"/>
					<path style="fill:#263238;" d="M233.31,422.32l0.15-12.78c0.01-0.56,0.66-0.87,1.09-0.51l8.36,6.77
						c0.34,0.28,0.33,0.81-0.04,1.07l-8.51,6C233.92,423.19,233.3,422.87,233.31,422.32z"/>
				</g>
			</g>
			<g>
				<path style="fill:#FFFFFF;stroke:#263238;stroke-linecap:round;stroke-linejoin:round;stroke-miterlimit:10;" d="M460.81,395.62
					H175.7c-4.92,0-8.91-3.99-8.91-8.91v-2.95c0-4.92,3.99-8.91,8.91-8.91h285.11c4.92,0,8.91,3.99,8.91,8.91v2.95
					C469.72,391.63,465.73,395.62,460.81,395.62z"/>
				<g>
					<g>
						<path style="fill:#263238;" d="M459.89,385.2c0,1.29-1.04,2.33-2.33,2.33H180.07c-1.29,0-2.33-1.04-2.33-2.33
							c0-1.28,1.04-2.33,2.33-2.33h277.49C458.86,382.87,459.89,383.92,459.89,385.2z"/>
					</g>
					<path style="fill:#7529D6;" d="M250.23,382.87l-0.16,4.66h-70c-1.29,0-2.33-1.04-2.33-2.33c0-1.28,1.04-2.33,2.33-2.33H250.23z
						"/>
					<g>
						<circle style="fill:#263238;" cx="248.93" cy="384.73" r="6.35"/>
						<circle style="fill:#FFFFFF;" cx="248.91" cy="384.65" r="2.58"/>
					</g>
				</g>
			</g>
		</g>
	</g>
</g>
<g id="Window">
	<g>
		<g>
			<path style="fill:#FFFFFF;stroke:#263238;stroke-linecap:round;stroke-linejoin:round;stroke-miterlimit:10;" d="M480.95,146.4
				v196.15c0,8.14-6.61,14.75-14.75,14.75H181.54c-8.16,0-14.75-6.61-14.75-14.75V146.4c0-0.79,0.06-1.55,0.18-2.29
				c1.11-7.05,7.2-12.46,14.57-12.46H466.2c7.35,0,13.46,5.41,14.57,12.46C480.89,144.85,480.95,145.61,480.95,146.4z"/>
		</g>
		<rect x="172.16" y="108.03" style="fill:#263238;" width="101.09" height="10.71"/>
	</g>
</g>
<g id="Character">
	<g>
		<g>
			<g>
				<path style="fill:#FFFFFF;" d="M232.58,258.79c0,0,4.97,19.56,13.63,31.63c11.77,10.97,19.21,11.62,28.19,11.62
					s13.32-4.52,13.32-4.52l1.55-10.65l-4.65-16.46c0,0-16.42-18.72-22.31-23.56s-18.59-19.36-22.31-38.08
					c-3.72-18.72-9.6-27.43-9.6-27.43s-2.08-18.41-4.82-18.18s-5.71,10.47-5.02,17.01c0,0-7.19-5.23-9.36-7.26
					c-2.17-2.02-10.62-11.78-12.1-10.47c-1.48,1.31,3.54,14.51,10.85,20.7c0,0-5.59-0.83-9.13-4.4
					c-3.54-3.57-10.28-10.94-13.36-9.63c-3.08,1.31-2.4,4.28-2.4,4.28s-3.31,0.95-2.28,6.07c0,0-3.08,4.52,1.26,10.94
					s12.79,12.96,20.32,16.53c7.54,3.57,10.62,5.71,13.36,12.01C220.46,225.25,232.58,258.79,232.58,258.79z"/>
				<path style="opacity:0.2;fill:#263238;" d="M289.27,286.87l-1,6.79l-0.56,3.86c0,0-4.33,4.52-13.31,4.52
					c-8.98,0-16.43-0.65-28.2-11.63c-8.65-12.07-13.63-31.62-13.63-31.62s-12.13-33.54-14.86-39.84c-2.75-6.3-5.83-8.45-13.36-12.01
					c-7.54-3.58-15.98-10.12-20.32-16.53c-2.95-4.35-2.48-7.84-1.87-9.62c0.29-0.86,0.61-1.33,0.61-1.33
					c-1.02-5.12,2.28-6.07,2.28-6.07s-0.68-2.97,2.4-4.27c3.08-1.31,9.82,6.06,13.35,9.62c3.54,3.58,9.14,4.41,9.14,4.41
					c-7.31-6.19-12.33-19.4-10.86-20.7c1.49-1.31,9.94,8.45,12.1,10.47c2.18,2.02,9.37,7.26,9.37,7.26
					c-0.69-6.54,2.28-16.77,5.03-17.02c2.73-0.23,4.82,18.18,4.82,18.18s5.88,8.71,9.6,27.43c3.73,18.72,16.43,33.25,22.31,38.09
					c5.89,4.84,22.31,23.56,22.31,23.56L289.27,286.87z"/>
			</g>
			<path style="fill:#7529D6;" d="M259.16,242.39c0,0,12.12-17.02,14.13-21.99c2.02-4.97,11.2-20.27,21.11-21.42
				c9.91-1.15,18.54-5.16,18.54-5.16l52.68,3.06c0,0,11.12,4.16,21.22,8c9.52,3.62,20.12,9.68,20.45,19.16
				c0.29,8.29,16.1,38.5,27.17,48l-43.44,13.22c0,0-1.52,12.62-8.23,17.66c0,0,14.71,34.39,8.65,54.85l-119.62-0.44
				c0,0-4.7-46.9,16.05-63.35c0,0-5.4-12-5.77-22.52C282.1,271.45,278.43,261.51,259.16,242.39z"/>
			<path style="opacity:0.1;fill:#263238;" d="M288.28,293.66l-4.6,4.88c0,0-1.9,2.98-9.92,3.24c-8.98,0.29-15.78-0.39-27.55-11.37
				c-8.65-12.07-13.63-31.62-13.63-31.62s-12.13-33.54-14.86-39.84c-2.75-6.3-5.83-8.45-13.36-12.01
				c-7.54-3.58-15.98-10.12-20.32-16.53c-2.95-4.35-2.48-7.84-1.87-9.62c3.6,1.99,7.86,5.52,10.98,7.81
				c6.2,3.73,10.51,6.64,16.83,10.08c12.54,6.84,19.11,21.43,23.87,35.32s9,28.8,19.3,38.92c5.88,5.79,13.39,9.58,21.21,11.74
				c4.71,1.29,10.07,2.36,12.81,6.55C287.65,291.97,288.03,292.8,288.28,293.66z"/>
			<path style="fill:#7529D6;" d="M382.79,302.91c0.87,0.31,16.21,34.92,8.65,54.85l-66.85-0.44l-53.8-0.66
				c0,0-3.2-46.37,17.54-62.8c0,0-6-12.04-6.37-22.56c0,0-3.5-9.04-22.79-28.16c0,0,11.93-17.97,13.95-22.95
				c2.02-4.98,10.67-19.71,20.58-20.86s18.19-6.17,18.19-6.17l52.69,3.07c0,0,4.58,2.78,10.78,5.06c3.27,1.19,6.79,1.87,10.27,3.2
				c13.24,5.02,19.51,10.67,20.62,18.9s16.1,38.5,27.17,48l-43.87,15.1C389.55,286.47,387.74,298.88,382.79,302.91z"/>
			<path style="opacity:0.1;" d="M382.79,302.91c0,0,15.81,29.84,8.65,54.85l-66.85-0.44c-1.33-4.17-1.33-9.1-0.97-13.46
				c-1.35-2.56-0.34-5.7-0.24-8.61c0.17-4.51-1.9-8.76-4.17-12.59c-2.28-3.84-4.87-7.6-5.96-11.96c-1.09-4.37-0.28-9.62,3.21-12.3
				c3.89-2.97,9.28-1.73,13.99-0.62c7.74,1.83,15.78,2.9,23.58,1.44c7.79-1.46,15.38-5.74,19.59-12.73c0.96-1.56,1.73-3.28,2.03-5.1
				c0.36-2.24,0-4.52-0.38-6.76c-1.14-6.64-2.53-13.34-1.88-20.05c0.44-4.41,1.74-8.68,2.31-13.08c1.22-9.36-1.05-19.16-6.24-26.9
				c2.8-3.69,3.52-9.29,6.04-13.13c3.27,1.19,6.95,2.42,10.56,3.35c10.47,2.67,20.26,10.5,21.36,18.73
				c1.1,8.23,12.42,34.86,26.41,48.36l-42.77,12.93C391.07,284.81,389.9,297.92,382.79,302.91z"/>
			<g>
				<path style="fill:#FFFFFF;" d="M425.94,271.85c0,0,3.1-3.8,6.02-3.04c0,0,6.93,9.3,9.84,12.72c2.36,2.77,4.49,9.16,3.85,14.72
					c-0.25,2.19-1.46,4.16-3.29,5.37c-3.74,2.47-11.32,6.77-18.24,6.5c-9.66-0.38-25.89-7.98-31.54-19.94
					c-5.65-11.96-6.93-27.54-6.93-27.54s-7.47-8.17-6.38-16.14c1.09-7.98,6.07-18.84,7.23-21.95c1.16-3.11,2.62-7.48,4.62-6.91
					s4.66,7.61,0.65,19.38c0,0,3.36-0.01,5.91-4.19c2.55-4.18,10.43-22.73,15.37-16.97c0,0,4.54-3.15,6.45-0.07
					c0,0,3.42-2.26,3.53,0.71c0.15,4.38-1.29,14.85-1.29,14.85s3.62-2.72,3.62,3.36c0,6.08-2.1,17.07-9.94,23.72
					C415.42,256.44,419.56,266.54,425.94,271.85z"/>
				<path style="opacity:0.2;fill:#263238;" d="M445.65,296.26c-0.25,2.21-1.48,4.18-3.34,5.4c-3.52,2.31-10.37,6.21-16.89,6.46
					c-0.44,0.01-0.88,0.01-1.3,0c-9.66-0.37-25.89-7.98-31.55-19.93c-5.65-11.96-6.93-27.54-6.93-27.54s-7.47-8.17-6.38-16.15
					c1.1-7.96,6.08-18.83,7.23-21.95c1.15-3.11,2.61-7.48,4.62-6.9c2,0.57,4.67,7.6,0.65,19.38c0,0,3.36-0.01,5.92-4.2
					c2.55-4.17,10.43-22.73,15.37-16.96c0,0,4.54-3.15,6.45-0.07c0,0,3.41-2.27,3.52,0.71c0.15,3.86-0.97,12.47-1.23,14.45v0.01
					c-0.04,0.26-0.05,0.4-0.05,0.4s3.62-2.72,3.62,3.36c0,6.07-2.1,17.07-9.94,23.71c0,0,4.14,10.11,10.52,15.43
					c0,0,2.19-3.17,5.19-3.14c0,0,7.75,9.4,10.67,12.82C444.16,284.3,446.29,290.7,445.65,296.26z"/>
			</g>
			<g>
				<path style="fill:#FFFFFF;" d="M355.82,150.04l11.25-12.28l-0.54-15.62l-9.91-7.25l-50.35-18.41l-21.16,35.71
					c0,0,7.23,43.8,13.39,47.99s5.62,16.74,5.62,16.74s8.08,31.21,36.2,33.44c26.03,1.72,34.91-28.97,34.91-28.97
					s-15.44-5.47-18.65-14.12S355.82,150.04,355.82,150.04z"/>
				<g>
					<defs>
						<path id="XMLID_2_" d="M375.47,201.41c0,0-1.78,3.96-4.27,9.08l-0.01,0.03c-4.33,8.86-13.39,20.78-30.7,19.91
							c-28.13-2.23-36.36-33.87-36.36-33.87s0.54-12.55-5.61-16.74c-6.17-4.19-13.4-47.98-13.4-47.98l21.17-35.71l21.07,7.7
							l29.28,10.71l9.91,7.24l0.53,15.64l-11.25,12.28c0,0,3.44,27.66,2.15,36.83C356.78,194.89,375.47,201.41,375.47,201.41z"/>
					</defs>
					<use xlink:href="#XMLID_2_"  style="overflow:visible;opacity:0.2;fill:#263238;"/>
					<clipPath id="XMLID_3_">
						<use xlink:href="#XMLID_2_"  style="overflow:visible;opacity:0.2;"/>
					</clipPath>
					<path style="opacity:0.1;clip-path:url(#XMLID_3_);fill:#263238;" d="M375.3,201.48c0,0-1.61,3.9-4.11,9.01l-0.01,0.03
						l-0.97,1.92c-17.28-12.5-25.37-31.77-26.09-53.74c-0.08-2.23,1.84-29.88,2.74-29.87c-25.96-0.39-41.48-25.83-41.48-25.83
						l21.96,0.82l29.28,10.71l9.91,7.24l0.53,15.64l-11.25,12.28c0,0,0.21,27.77,2.15,36.83
						C359.72,194.73,375.3,201.48,375.3,201.48z"/>
				</g>
			</g>
			
				<path style="fill:none;stroke:#263238;stroke-width:0.9798;stroke-linecap:round;stroke-linejoin:round;stroke-miterlimit:10;" d="
				M348.23,130.89c0,0,3.66-9.87,11.18-7.97c7.52,1.9,4.05,22.06-2.65,23.96c-6.7,1.9-7.11-4.02-7.11-4.02"/>
			
				<path style="fill:none;stroke:#263238;stroke-width:0.9798;stroke-linecap:round;stroke-linejoin:round;stroke-miterlimit:10;" d="
				M313.26,132.73c-0.01-0.2-0.01-0.4-0.02-0.6c0.12,2.27,0.63,4.52,0.65,6.79c0.02,2.28-0.53,4.71-2.14,6.24
				c-1.07,1.02-2.65,1.76-2.86,3.25c-0.12,0.81,0.23,1.6,0.6,2.32c0.59,1.14,1.29,2.25,2.26,3.05c0.97,0.81,2.25,1.28,3.47,1.03"/>
			
				<path style="fill:#FFFFFF;stroke:#263238;stroke-width:0.9798;stroke-linecap:round;stroke-linejoin:round;stroke-miterlimit:10;" d="
				M312.77,164c0,0,15.72-3.42,19.3-14.58c0,0,2.53,11.86-4.59,16.8C319.5,171.77,312.77,164,312.77,164z"/>
			
				<path style="fill:none;stroke:#263238;stroke-width:0.9798;stroke-linecap:round;stroke-linejoin:round;stroke-miterlimit:10;" d="
				M289.97,120.57c1.8,14.26,3.18,28.46,7.51,42.23c2.97,9.46,9.45,18.77,20.19,18.15c12.97-0.76,22.91-3.02,31.42-13.49"/>
			
				<path style="fill:none;stroke:#263238;stroke-width:0.9798;stroke-linecap:round;stroke-linejoin:round;stroke-miterlimit:10;" d="
				M319.89,124.72c0,0,4.7-4.7,10.7-0.25"/>
			
				<path style="fill:none;stroke:#263238;stroke-width:0.9798;stroke-linecap:round;stroke-linejoin:round;stroke-miterlimit:10;" d="
				M306.74,126.39c-2.36-1.01-6.33-1.54-9.97,3.58"/>
			
				<path style="fill:none;stroke:#263238;stroke-width:0.9798;stroke-linecap:round;stroke-linejoin:round;stroke-miterlimit:10;" d="
				M320.82,180.67c0,0,0.52,14.89-4.03,17.26s-22.47-3.16-32.07,6.31c-9.59,9.47-20.37,34.59-25.68,38.27"/>
			<path style="fill:#263238;" d="M326.85,135.23c0,2.13-0.77,3.85-1.72,3.85s-1.72-1.73-1.72-3.85s0.77-3.87,1.72-3.87
				S326.85,133.09,326.85,135.23z"/>
			<path style="fill:#263238;" d="M304.86,137.34c0,2.13-0.77,3.86-1.72,3.86c-0.95,0-1.71-1.73-1.71-3.86
				c0-2.13,0.77-3.87,1.71-3.87C304.1,133.48,304.86,135.2,304.86,137.34z"/>
			<path style="fill:#263238;" d="M291.21,126.52c0,0,6.87-1.8,14.4-23.52c0,0,21.33,27.59,44.26,24.08c0,0,6.35-7.72,11.93-1.98
				c4.66,4.8,0.02,20.03-3.9,21.39c-3.92,1.36-5.21,0.08-5.21,0.08s-10.97,20.93-0.09,38.6c10.88,17.68,33.94,8.16,41.33-5.44
				c7.4-13.6,0.22-24.47,0.22-24.47s5.22,2.27,5.44,9.29c0,0,4.35-7.71-2.17-18.58c-6.61-11.01-13.6-21.76-20.19-32.78
				c-6.37-10.66-11.13-24.8-22.93-30.49c-13.83-6.67-31.08-4.83-44.89,0.79c-11.39,4.64-17.25,15.76-21.81,27.09
				c-3.24,8.04-5.08,16.62-8.5,24.6c-2.99,6.96-8.33,12.46-11.37,19.46c-8.16,18.8-0.61,40.75,16.79,49.6c0,0,1.53-3.88,8.71-4.56
				c7.18-0.68,8.7-1.36,15.45-1.13c6.74,0.23,8.92-0.45,10.44-4.53s2-12.95,2-12.95s-8.81,1.89-15.07-3.58
				c-6.31-7.48-8.55-11.44-10.08-20.73C294.44,147.46,291.21,126.52,291.21,126.52z"/>
			<path style="fill:#263238;" d="M321.11,181.06c0,0-1.3,8.54,8.02,6.07c9.31-2.48,19.4-18.44,19.4-18.44
				S337.28,179.76,321.11,181.06z"/>
			
				<path style="fill:none;stroke:#263238;stroke-width:0.9798;stroke-linecap:round;stroke-linejoin:round;stroke-miterlimit:10;" d="
				M271.22,357.16c0,0-6.44-41.74,16.95-63.44"/>
			
				<path style="fill:none;stroke:#263238;stroke-width:0.9798;stroke-linecap:round;stroke-linejoin:round;stroke-miterlimit:10;" d="
				M289.4,295.09c-8.23-12.76-11.3-34.72,0.64-46.22"/>
			
				<path style="fill:none;stroke:#263238;stroke-width:0.9798;stroke-linecap:round;stroke-linejoin:round;stroke-miterlimit:10;" d="
				M349.52,172.59c0,0,2.05,22.05,28.33,29.51c21.11,6,25.92,12.82,27.26,15.49"/>
			
				<path style="fill:none;stroke:#263238;stroke-width:0.9798;stroke-linecap:round;stroke-linejoin:round;stroke-miterlimit:10;" d="
				M304.64,197.99c0,0,10.69,32.42,39.18,32.85c20.8,0.31,31.53-29.11,31.53-29.11"/>
			
				<path style="fill:none;stroke:#263238;stroke-width:0.9798;stroke-linecap:round;stroke-linejoin:round;stroke-miterlimit:10;" d="
				M307.74,297.98c14.87,6.38,31.37,6.89,47.45,7.3"/>
			
				<path style="fill:none;stroke:#263238;stroke-width:0.9798;stroke-linecap:round;stroke-linejoin:round;stroke-miterlimit:10;" d="
				M282.92,299.51c-1.46,1.11-4.41,1.63-5.11,1.75c-13.16,2.21-25.46-2.13-33.51-13.38c-4.49-6.26-6.71-13.33-9.08-20.68
				c-5.24-16.28-10.74-32.37-16.96-48.25c0,0-1.8-4.08-3.73-5.68c-3.41-2.83-10-7.49-15.05-8.94c-7.25-2.08-20.24-17.96-17.99-22.39
				s13.99,10.67,18.99,11.97"/>
			
				<path style="fill:none;stroke:#263238;stroke-width:0.9798;stroke-linecap:round;stroke-linejoin:round;stroke-miterlimit:10;" d="
				M286.09,239.62c0,0-1.27-13.51,3.31-25.43"/>
			<g style="opacity:0.42;">
				
					<path style="fill:none;stroke:#FFFFFF;stroke-width:0.9798;stroke-linecap:round;stroke-linejoin:round;stroke-miterlimit:10;" d="
					M318.43,92.92c0,0,11.79,20.47,32.42,22.51"/>
				
					<path style="fill:none;stroke:#FFFFFF;stroke-width:0.9798;stroke-linecap:round;stroke-linejoin:round;stroke-miterlimit:10;" d="
					M362.67,148.19c-2.46,13.5-0.45,27.83,5.61,40.03"/>
				
					<path style="fill:none;stroke:#FFFFFF;stroke-width:0.9798;stroke-linecap:round;stroke-linejoin:round;stroke-miterlimit:10;" d="
					M357.77,107.17c6.7,6.11,13.19,12.63,16.4,21.17c2.98,7.93,2.76,16.71,2.98,25.23c0.22,8.52,1.06,17.47,5.72,24.47"/>
				
					<path style="fill:none;stroke:#FFFFFF;stroke-width:0.9798;stroke-linecap:round;stroke-linejoin:round;stroke-miterlimit:10;" d="
					M336.27,86.59c4.69,4.88,9.51,9.61,14.46,14.19"/>
				
					<path style="fill:none;stroke:#FFFFFF;stroke-width:0.9798;stroke-linecap:round;stroke-linejoin:round;stroke-miterlimit:10;" d="
					M287.75,142.57c-6.86,12.17-8.49,27.37-4.57,40.86"/>
			</g>
			
				<path style="fill:#FFFFFF;stroke:#263238;stroke-width:0.9798;stroke-linecap:round;stroke-linejoin:round;stroke-miterlimit:10;" d="
				M206.12,204.95c0,0,29.69-44.83,26.54-47.56c-3.14-2.72-32.62,44.56-32.62,44.56s-7.89,1.52-11.27,4.83
				c-3.38,3.31-11.34,24.04-10.32,24.7c1.02,0.66,11.08-16.49,12-16.26s-5.6,20.59-4.68,20.81c0.92,0.23,11.54-17.76,12.97-17.2
				c1.43,0.56-6.85,20.24-5.47,20.58c1.38,0.34,13.86-17.64,14.07-21.54C207.55,213.98,206.12,204.95,206.12,204.95z"/>
			
				<path style="fill:none;stroke:#263238;stroke-width:0.9798;stroke-linecap:round;stroke-linejoin:round;stroke-miterlimit:10;" d="
				M359.05,231.16c1.91-1.42,3.74-3.26,5.41-5.59"/>
			
				<path style="fill:none;stroke:#263238;stroke-width:0.9798;stroke-linecap:round;stroke-linejoin:round;stroke-miterlimit:10;" d="
				M334.63,234.09c0,0,9.63,3.78,19.23-0.03"/>
			
				<path style="fill:none;stroke:#263238;stroke-width:0.9798;stroke-linecap:round;stroke-linejoin:round;stroke-miterlimit:10;" d="
				M405.66,240.61c0,0-7.25-5.12-14.97-3.9c0,0,6.08-19.5,1.4-20.96c-3.19-1-4.81,4.64-5.59,6.8c-1.52,4.21-3.37,8.17-5,12.34
				c-2.97,7.63-2.46,18.47,3.8,24.24"/>
			
				<path style="fill:none;stroke:#263238;stroke-width:0.9798;stroke-linecap:round;stroke-linejoin:round;stroke-miterlimit:10;" d="
				M414.04,257.38c3.38-3.01,6.86-6.17,8.67-10.4c1-2.33,1.43-4.87,1.8-7.39c0.37-2.48,0.68-4.96,0.95-7.46
				c0.1-0.9,0.14-1.95-0.49-2.58c-0.54-0.55-1.43-0.57-2.12-0.25c-0.69,0.32-1.21,0.93-1.68,1.55c-1.3,1.72-2.33,3.66-3.04,5.73
				c-0.73,2.15-1.13,4.46-2.3,6.39c-0.1,0.17-0.21,0.33-0.32,0.49"/>
			
				<path style="fill:none;stroke:#263238;stroke-width:0.9798;stroke-linecap:round;stroke-linejoin:round;stroke-miterlimit:10;" d="
				M420.49,231.55c1.98-5.76,2.57-12.36,2.56-18.48c-1.35-0.28-2.75,0.38-3.73,1.39c-0.98,1.01-1.61,2.32-2.19,3.61
				c-2.78,6.15-5.07,12.6-8.3,18.47"/>
			
				<path style="fill:none;stroke:#263238;stroke-width:0.9798;stroke-linecap:round;stroke-linejoin:round;stroke-miterlimit:10;" d="
				M419.82,213.45c-0.54-1.49-2.5-1.94-3.9-1.29s-2.33,2.03-3.11,3.4c-3.42,5.94-5.47,12.63-8.64,18.71"/>
			
				<path style="fill:none;stroke:#263238;stroke-width:0.9798;stroke-linecap:round;stroke-linejoin:round;stroke-miterlimit:10;" d="
				M413.13,214.82c0.28-1.42-1.35-2.61-2.72-2.37c-1.37,0.24-2.41,1.39-3.26,2.54c-2.79,3.8-4.55,8.31-7.01,12.35
				s-4.64,7.33-9.14,8.28"/>
			
				<path style="fill:none;stroke:#263238;stroke-width:0.9798;stroke-linecap:round;stroke-linejoin:round;stroke-miterlimit:10;" d="
				M385.26,258.16c0,0,2.7,16.01,5.12,24.72c2.36,8.47,21.56,36.34,51.64,19.51c1.93-1.08,3.26-2.97,3.67-5.15
				c0.63-3.4,0.65-8.78-3.25-14.37c-6.47-9.27-19.96-22.47-22.92-30.9"/>
			
				<path style="fill:none;stroke:#263238;stroke-width:0.9798;stroke-linecap:round;stroke-linejoin:round;stroke-miterlimit:10;" d="
				M415.09,256.83c1.35,3.63,3.34,7,5.85,9.88c3.05,3.5,6.8,6.26,10.05,9.55c3.25,3.3,6.1,7.39,6.55,12.1"/>
			
				<path style="fill:none;stroke:#263238;stroke-width:0.9798;stroke-linecap:round;stroke-linejoin:round;stroke-miterlimit:10;" d="
				M390.78,284.94c0,0-0.72,16.22-13.04,21.12"/>
			
				<path style="fill:none;stroke:#263238;stroke-width:0.9798;stroke-linecap:round;stroke-linejoin:round;stroke-miterlimit:10;" d="
				M382.79,302.91c0,0,15.89,27.31,8.65,54.85"/>
			
				<path style="fill:none;stroke:#263238;stroke-width:0.9798;stroke-linecap:round;stroke-linejoin:round;stroke-miterlimit:10;" d="
				M216.97,215.27"/>
			
				<path style="fill:none;stroke:#263238;stroke-width:0.9798;stroke-linecap:round;stroke-linejoin:round;stroke-miterlimit:10;" d="
				M183.08,180.48c0,0-1.77-4.86,0.98-6.68c2.75-1.82,16.74,13.28,20.49,13.02"/>
			
				<path style="fill:none;stroke:#263238;stroke-width:0.9798;stroke-linecap:round;stroke-linejoin:round;stroke-miterlimit:10;" d="
				M185.22,173.78c-0.68-1.46,0.23-3.35,1.64-4.03c1.42-0.68,3.12-0.35,4.49,0.43c1.36,0.79,2.46,1.99,3.55,3.15
				c4.73,5.03,9.5,9.34,16.22,10.06"/>
			
				<path style="fill:none;stroke:#263238;stroke-width:0.9798;stroke-linecap:round;stroke-linejoin:round;stroke-miterlimit:10;" d="
				M210.45,183.12c0,0-12.79-12.39-11.9-19.17c0.9-6.78,9.4,10.05,17.71,13.32"/>
			<g>
				<path style="fill:#FFFFFF;" d="M230.95,183.63c-0.46-1.48-1.08-3.12-1.42-4.71c-0.55-2.56-0.81-5.18-1.14-7.78
					c-0.23-1.82-0.63-9.28-3.99-7.18c-5.32,3.32-3.72,22.17-3.72,22.17c-6.38,3.88-7.71,13.02-7.71,13.02"/>
				<path style="opacity:0.2;fill:#263238;" d="M230.95,183.7c-0.61-1.37-1.08-3.28-1.42-4.87c-0.55-2.56-0.81-5.18-1.14-7.78
					c-0.23-1.82-0.63-9.28-3.99-7.18c-5.32,3.32-3.72,22.17-3.72,22.17c-6.38,3.88-7.71,13.02-7.71,13.02"/>
			</g>
			
				<path style="fill:none;stroke:#263238;stroke-width:0.9798;stroke-linecap:round;stroke-linejoin:round;stroke-miterlimit:10;" d="
				M231.09,182.7c-0.61-1.37-1.18-2.73-1.52-4.32c-0.55-2.56-0.81-5.18-1.14-7.78c-0.23-1.82-0.63-9.28-3.99-7.18
				c-5.32,3.32-3.72,22.17-3.72,22.17c-6.38,3.88-7.71,13.02-7.71,13.02"/>
			
				<path style="fill:none;stroke:#263238;stroke-width:0.9798;stroke-linecap:round;stroke-linejoin:round;stroke-miterlimit:10;" d="
				M281.71,270.13c-2.55-9.3-28.71-28.12-37.2-47.44c-2.36-5.36-3.64-11.31-5.22-16.95c-1.95-6.95-4.31-13.55-6.97-20.23
				c-0.39-0.98-0.82-1.89-1.23-2.8"/>
			<path style="opacity:0.1;fill:#263238;" d="M442.31,301.66c-3.52,2.31-10.37,6.21-16.89,6.46c-1.99-1.26-3.89-2.64-5.69-4.15
				c-11.41-9.54-19.43-24.29-18.69-39.52c0.17-3.32,0.77-6.72,2.55-9.48c2.77-4.34,7.76-6.35,10.79-10.42
				c3.46-4.67,3.44-11,7.41-15.58c-0.04,0.26-0.05,0.4-0.05,0.4s3.62-2.72,3.62,3.36c0,6.07-2.1,17.07-9.94,23.71
				c0,0,4.14,10.11,10.52,15.43c0,0,1.8-2.68,5.06-3.24c0,0,7.88,9.5,10.8,12.92c2.37,2.77,4.49,9.16,3.85,14.72
				C445.4,298.47,444.17,300.44,442.31,301.66z"/>
			<path style="opacity:0.1;" d="M269.21,254.26c0-0.7,13.71-15.27,17.28-30.59c0,0-0.34,15.16-0.54,17.66c0,0-0.03,0.54-0.03,0.72
				c0.29,8.22,1.12,9.66,1.12,9.66s-5.13,11.84-5.13,16.25L269.21,254.26z"/>
		</g>
		<g>
			<path style="fill:#263238;" d="M344.38,357.49c1.82-5.41,3.38-34.89-0.52-39.48c-3.89-4.6-76.73-6.53-78.92,0.54
				c-2.67,8.64,1.73,38.89,1.73,38.89L344.38,357.49z"/>
			
				<path style="fill:none;stroke:#263238;stroke-width:2.9393;stroke-linecap:round;stroke-linejoin:round;stroke-miterlimit:10;" d="
				M343.88,331.43c2.11-2.73,6.28-3.55,9.34-2.31c3.67,1.48,3.98,6.65,3,10.09c-1.52,5.35-6.31,12.83-12.5,12.01"/>
			
				<path style="fill:none;stroke:#263238;stroke-width:0.9798;stroke-linecap:round;stroke-linejoin:round;stroke-miterlimit:10;" d="
				M301.95,313.61c1.38-1.24,1.92-3.23,1.98-5.13c0.08-2.33-0.48-4.68-1.6-6.71c-0.51-0.93-1.14-1.79-1.79-2.62
				c-0.7-0.89-1.44-1.75-2.21-2.58c-0.09-0.1-0.26-0.09-0.32-0.21c-0.06-0.12,0.22-0.12,0.11-0.05"/>
			
				<path style="fill:none;stroke:#263238;stroke-width:0.9798;stroke-linecap:round;stroke-linejoin:round;stroke-miterlimit:10;" d="
				M320.15,286.07c5.94-4.18,9.23-12.08,8.11-19.46"/>
			
				<path style="fill:none;stroke:#263238;stroke-width:0.9798;stroke-linecap:round;stroke-linejoin:round;stroke-miterlimit:10;" d="
				M326.75,255.39c0,0-2.86-8.01-9.01-11.68"/>
			<path style="opacity:0.2;fill:#FFFFFF;" d="M344.57,357.58c1.82-5.41,3.38-34.89-0.52-39.48c-3.89-4.6-76.73-6.53-78.92,0.54
				c-2.67,8.64,1.73,38.89,1.73,38.89L344.57,357.58z"/>
			
				<path style="fill:none;stroke:#263238;stroke-width:0.9798;stroke-linecap:round;stroke-linejoin:round;stroke-miterlimit:10;" d="
				M344.38,357.49c1.82-5.41,3.38-34.89-0.52-39.48c-3.89-4.6-76.73-6.53-78.92,0.54c-2.67,8.64,1.73,38.89,1.73,38.89
				L344.38,357.49z"/>
			<ellipse style="fill:#263238;" cx="304.25" cy="318.4" rx="35.55" ry="1.09"/>
			
				<path style="fill:#FFFFFF;stroke:#263238;stroke-width:0.9798;stroke-linecap:round;stroke-linejoin:round;stroke-miterlimit:10;" d="
				M316.35,255.89c3,1.62,5.09,4.96,5.28,8.48s-1.49,7.09-4.29,9.06c-3.67,2.59-8.45,2.3-12.84,2.92s-9.36,3.13-9.83,7.72
				c-0.24,2.33,0.8,4.61,2.13,6.51c2.18,3.11,5.14,5.5,7.79,8.19c2.65,2.68,5.09,5.86,5.74,9.65s-1.04,8.23-4.53,9.5
				c2.18,0,4.41,0.21,6.58,0.21c4.3,0,5.84-6.89,5.43-11.35c-0.41-4.46-2.97-8.52-6.38-11.26c-1.73-1.39-3.7-2.5-5.07-4.27
				c-1.37-1.77-1.94-4.52-0.54-6.27c1.74-2.18,5.02-1.46,7.74-1.65c5.71-0.4,10.28-6.12,10.6-12.07
				C324.48,265.31,320.99,259.38,316.35,255.89z"/>
		</g>
	</g>
</g>
<g id="Videos">
	<g>
		<g>
			<rect x="550.22" y="135.94" style="fill:#263238;" width="62.32" height="6.19"/>
			<rect x="550.22" y="147.91" style="fill:#263238;" width="62.32" height="6.19"/>
			<rect x="550.22" y="159.88" style="fill:#263238;" width="62.32" height="6.19"/>
			<g>
				<path style="opacity:0.1;" d="M525.42,192.58h-91.36c-4.92,0-8.91-3.99-8.91-8.91v-50.49c0-4.92,3.99-8.91,8.91-8.91h91.36
					c4.92,0,8.91,3.99,8.91,8.91v50.49C534.33,188.59,530.34,192.58,525.42,192.58z"/>
				<g>
					<path style="fill:#7529D6;stroke:#263238;stroke-miterlimit:10;" d="M532.69,187.32h-91.36c-4.92,0-8.91-3.99-8.91-8.91v-50.49
						c0-4.92,3.99-8.91,8.91-8.91h91.36c4.92,0,8.91,3.99,8.91,8.91v50.49C541.6,183.33,537.61,187.32,532.69,187.32z"/>
					<circle style="fill:#FFFFFF;" cx="487.05" cy="153.48" r="23.11"/>
					<polygon style="fill:#263238;" points="480.49,166.83 480.49,141.31 500.77,154.07 					"/>
				</g>
			</g>
		</g>
		<g>
			<rect x="550.22" y="226.38" style="fill:#263238;" width="62.32" height="6.19"/>
			<rect x="550.22" y="238.34" style="fill:#263238;" width="62.32" height="6.19"/>
			<rect x="550.22" y="250.31" style="fill:#263238;" width="62.32" height="6.19"/>
			<g>
				<path style="opacity:0.1;" d="M525.42,281.22h-91.36c-4.92,0-8.91-3.99-8.91-8.91v-50.49c0-4.92,3.99-8.91,8.91-8.91h91.36
					c4.92,0,8.91,3.99,8.91,8.91v50.49C534.33,277.23,530.34,281.22,525.42,281.22z"/>
				<g>
					<path style="fill:#7529D6;stroke:#263238;stroke-miterlimit:10;" d="M532.69,276.34h-91.36c-4.92,0-8.91-3.99-8.91-8.91v-50.49
						c0-4.92,3.99-8.91,8.91-8.91h91.36c4.92,0,8.91,3.99,8.91,8.91v50.49C541.6,272.36,537.61,276.34,532.69,276.34z"/>
					<circle style="fill:#FFFFFF;" cx="487.05" cy="242.73" r="23.11"/>
					<polygon style="fill:#263238;" points="480.49,256.08 480.49,230.56 500.77,243.32 					"/>
				</g>
			</g>
		</g>
		<g>
			<rect x="550.22" y="314.73" style="fill:#263238;" width="62.32" height="6.19"/>
			<rect x="550.22" y="326.7" style="fill:#263238;" width="62.32" height="6.19"/>
			<rect x="550.22" y="338.67" style="fill:#263238;" width="62.32" height="6.19"/>
			<g>
				<path style="opacity:0.1;" d="M525.42,369.34h-91.36c-4.92,0-8.91-3.99-8.91-8.91v-50.49c0-4.92,3.99-8.91,8.91-8.91h91.36
					c4.92,0,8.91,3.99,8.91,8.91v50.49C534.33,365.35,530.34,369.34,525.42,369.34z"/>
				<g>
					<path style="fill:#7529D6;stroke:#263238;stroke-miterlimit:10;" d="M532.69,365.37h-91.36c-4.92,0-8.91-3.99-8.91-8.91v-50.49
						c0-4.92,3.99-8.91,8.91-8.91h91.36c4.92,0,8.91,3.99,8.91,8.91v50.49C541.6,361.38,537.61,365.37,532.69,365.37z"/>
					<circle style="fill:#FFFFFF;" cx="487.05" cy="331.98" r="23.11"/>
					<polygon style="fill:#263238;" points="480.49,345.34 480.49,319.81 500.77,332.57 					"/>
				</g>
			</g>
		</g>
	</g>
</g>
</svg>
